<?xml version="1.0" encoding="us-ascii" standalone="no"?><svg xmlns="http://www.w3.org/2000/svg" xmlns:xlink="http://www.w3.org/1999/xlink" contentStyleType="text/css" height="1920px" preserveAspectRatio="none" style="width:2987px;height:1920px;background:#FFFFFF;" version="1.1" viewBox="0 0 2987 1920" width="2987px" zoomAndPan="magnify"><defs/><g><!--cluster PHP--><g id="cluster_PHP"><path d="M1288.5,80 L1320.5,80 A3.75,3.75 0 0 1 1323,82.5 L1330,102.2969 L2007.5,102.2969 A2.5,2.5 0 0 1 2010,104.7969 L2010,176.5 A2.5,2.5 0 0 1 2007.5,179 L1288.5,179 A2.5,2.5 0 0 1 1286,176.5 L1286,82.5 A2.5,2.5 0 0 1 1288.5,80 " fill="none" style="stroke:#000000;stroke-width:1.5;"/><line style="stroke:#000000;stroke-width:1.5;" x1="1286" x2="1330" y1="102.2969" y2="102.2969"/><text fill="#000000" font-family="sans-serif" font-size="14" font-weight="bold" lengthAdjust="spacing" textLength="31" x="1290" y="94.9951">PHP</text></g><!--cluster Unity--><g id="cluster_Unity"><path d="M8.5,203 L52.5,203 A3.75,3.75 0 0 1 55,205.5 L62,225.2969 L2977.5,225.2969 A2.5,2.5 0 0 1 2980,227.7969 L2980,1910.5 A2.5,2.5 0 0 1 2977.5,1913 L8.5,1913 A2.5,2.5 0 0 1 6,1910.5 L6,205.5 A2.5,2.5 0 0 1 8.5,203 " fill="none" style="stroke:#000000;stroke-width:1.5;"/><line style="stroke:#000000;stroke-width:1.5;" x1="6" x2="62" y1="225.2969" y2="225.2969"/><text fill="#000000" font-family="sans-serif" font-size="14" font-weight="bold" lengthAdjust="spacing" textLength="43" x="10" y="217.9951">Unity</text></g><!--class Register--><g id="elem_Register"><rect codeLine="3" fill="#ABDBE3" height="48" id="Register" rx="2.5" ry="2.5" style="stroke:#181818;stroke-width:0.5;" width="93" x="1900.5" y="115"/><ellipse cx="1915.5" cy="131" fill="#ADD1B2" rx="11" ry="11" style="stroke:#181818;stroke-width:1.0;"/><path d="M1917.8438,126.6719 C1916.9063,126.2344 1916.3125,126.0938 1915.4375,126.0938 C1912.8125,126.0938 1910.8125,128.1719 1910.8125,130.8906 L1910.8125,132.0156 C1910.8125,134.5938 1912.9219,136.4844 1915.8125,136.4844 C1917.0313,136.4844 1918.1875,136.1875 1918.9375,135.6406 C1919.5156,135.2344 1919.8438,134.7813 1919.8438,134.3906 C1919.8438,133.9375 1919.4531,133.5469 1918.9844,133.5469 C1918.7656,133.5469 1918.5625,133.625 1918.375,133.8125 C1917.9219,134.2969 1917.9219,134.2969 1917.7344,134.3906 C1917.3125,134.6563 1916.625,134.7813 1915.8594,134.7813 C1913.8125,134.7813 1912.5156,133.6875 1912.5156,131.9844 L1912.5156,130.8906 C1912.5156,129.1094 1913.7656,127.7969 1915.5,127.7969 C1916.0781,127.7969 1916.6875,127.9531 1917.1563,128.2031 C1917.6406,128.4844 1917.8125,128.7031 1917.9063,129.1094 C1917.9688,129.5156 1918,129.6406 1918.1406,129.7656 C1918.2813,129.9063 1918.5156,130.0156 1918.7344,130.0156 C1919,130.0156 1919.2656,129.875 1919.4375,129.6563 C1919.5469,129.5 1919.5781,129.3125 1919.5781,128.8906 L1919.5781,127.4688 C1919.5781,127.0313 1919.5625,126.9063 1919.4688,126.75 C1919.3125,126.4844 1919.0313,126.3438 1918.7344,126.3438 C1918.4375,126.3438 1918.2344,126.4375 1918.0156,126.75 L1917.8438,126.6719 Z " fill="#000000"/><text fill="#000000" font-family="sans-serif" font-size="14" lengthAdjust="spacing" textLength="61" x="1929.5" y="135.8467">Register</text><line style="stroke:#181818;stroke-width:0.5;" x1="1901.5" x2="1992.5" y1="147" y2="147"/><line style="stroke:#181818;stroke-width:0.5;" x1="1901.5" x2="1992.5" y1="155" y2="155"/></g><!--class Score_submit--><g id="elem_Score_submit"><rect codeLine="6" fill="#ABDBE3" height="48" id="Score_submit" rx="2.5" ry="2.5" style="stroke:#181818;stroke-width:0.5;" width="130" x="1735" y="115"/><ellipse cx="1750" cy="131" fill="#ADD1B2" rx="11" ry="11" style="stroke:#181818;stroke-width:1.0;"/><path d="M1752.3438,126.6719 C1751.4063,126.2344 1750.8125,126.0938 1749.9375,126.0938 C1747.3125,126.0938 1745.3125,128.1719 1745.3125,130.8906 L1745.3125,132.0156 C1745.3125,134.5938 1747.4219,136.4844 1750.3125,136.4844 C1751.5313,136.4844 1752.6875,136.1875 1753.4375,135.6406 C1754.0156,135.2344 1754.3438,134.7813 1754.3438,134.3906 C1754.3438,133.9375 1753.9531,133.5469 1753.4844,133.5469 C1753.2656,133.5469 1753.0625,133.625 1752.875,133.8125 C1752.4219,134.2969 1752.4219,134.2969 1752.2344,134.3906 C1751.8125,134.6563 1751.125,134.7813 1750.3594,134.7813 C1748.3125,134.7813 1747.0156,133.6875 1747.0156,131.9844 L1747.0156,130.8906 C1747.0156,129.1094 1748.2656,127.7969 1750,127.7969 C1750.5781,127.7969 1751.1875,127.9531 1751.6563,128.2031 C1752.1406,128.4844 1752.3125,128.7031 1752.4063,129.1094 C1752.4688,129.5156 1752.5,129.6406 1752.6406,129.7656 C1752.7813,129.9063 1753.0156,130.0156 1753.2344,130.0156 C1753.5,130.0156 1753.7656,129.875 1753.9375,129.6563 C1754.0469,129.5 1754.0781,129.3125 1754.0781,128.8906 L1754.0781,127.4688 C1754.0781,127.0313 1754.0625,126.9063 1753.9688,126.75 C1753.8125,126.4844 1753.5313,126.3438 1753.2344,126.3438 C1752.9375,126.3438 1752.7344,126.4375 1752.5156,126.75 L1752.3438,126.6719 Z " fill="#000000"/><text fill="#000000" font-family="sans-serif" font-size="14" lengthAdjust="spacing" textLength="98" x="1764" y="135.8467">Score_submit</text><line style="stroke:#181818;stroke-width:0.5;" x1="1736" x2="1864" y1="147" y2="147"/><line style="stroke:#181818;stroke-width:0.5;" x1="1736" x2="1864" y1="155" y2="155"/></g><!--class Server_login--><g id="elem_Server_login"><rect codeLine="10" fill="#ABDBE3" height="48" id="Server_login" rx="2.5" ry="2.5" style="stroke:#181818;stroke-width:0.5;" width="121" x="1578.5" y="115"/><ellipse cx="1593.5" cy="131" fill="#ADD1B2" rx="11" ry="11" style="stroke:#181818;stroke-width:1.0;"/><path d="M1595.8438,126.6719 C1594.9063,126.2344 1594.3125,126.0938 1593.4375,126.0938 C1590.8125,126.0938 1588.8125,128.1719 1588.8125,130.8906 L1588.8125,132.0156 C1588.8125,134.5938 1590.9219,136.4844 1593.8125,136.4844 C1595.0313,136.4844 1596.1875,136.1875 1596.9375,135.6406 C1597.5156,135.2344 1597.8438,134.7813 1597.8438,134.3906 C1597.8438,133.9375 1597.4531,133.5469 1596.9844,133.5469 C1596.7656,133.5469 1596.5625,133.625 1596.375,133.8125 C1595.9219,134.2969 1595.9219,134.2969 1595.7344,134.3906 C1595.3125,134.6563 1594.625,134.7813 1593.8594,134.7813 C1591.8125,134.7813 1590.5156,133.6875 1590.5156,131.9844 L1590.5156,130.8906 C1590.5156,129.1094 1591.7656,127.7969 1593.5,127.7969 C1594.0781,127.7969 1594.6875,127.9531 1595.1563,128.2031 C1595.6406,128.4844 1595.8125,128.7031 1595.9063,129.1094 C1595.9688,129.5156 1596,129.6406 1596.1406,129.7656 C1596.2813,129.9063 1596.5156,130.0156 1596.7344,130.0156 C1597,130.0156 1597.2656,129.875 1597.4375,129.6563 C1597.5469,129.5 1597.5781,129.3125 1597.5781,128.8906 L1597.5781,127.4688 C1597.5781,127.0313 1597.5625,126.9063 1597.4688,126.75 C1597.3125,126.4844 1597.0313,126.3438 1596.7344,126.3438 C1596.4375,126.3438 1596.2344,126.4375 1596.0156,126.75 L1595.8438,126.6719 Z " fill="#000000"/><text fill="#000000" font-family="sans-serif" font-size="14" lengthAdjust="spacing" textLength="89" x="1607.5" y="135.8467">Server_login</text><line style="stroke:#181818;stroke-width:0.5;" x1="1579.5" x2="1698.5" y1="147" y2="147"/><line style="stroke:#181818;stroke-width:0.5;" x1="1579.5" x2="1698.5" y1="155" y2="155"/></g><!--class Statistics--><g id="elem_Statistics"><rect codeLine="14" fill="#ABDBE3" height="48" id="Statistics" rx="2.5" ry="2.5" style="stroke:#181818;stroke-width:0.5;" width="100" x="1443" y="115"/><ellipse cx="1458" cy="131" fill="#ADD1B2" rx="11" ry="11" style="stroke:#181818;stroke-width:1.0;"/><path d="M1460.3438,126.6719 C1459.4063,126.2344 1458.8125,126.0938 1457.9375,126.0938 C1455.3125,126.0938 1453.3125,128.1719 1453.3125,130.8906 L1453.3125,132.0156 C1453.3125,134.5938 1455.4219,136.4844 1458.3125,136.4844 C1459.5313,136.4844 1460.6875,136.1875 1461.4375,135.6406 C1462.0156,135.2344 1462.3438,134.7813 1462.3438,134.3906 C1462.3438,133.9375 1461.9531,133.5469 1461.4844,133.5469 C1461.2656,133.5469 1461.0625,133.625 1460.875,133.8125 C1460.4219,134.2969 1460.4219,134.2969 1460.2344,134.3906 C1459.8125,134.6563 1459.125,134.7813 1458.3594,134.7813 C1456.3125,134.7813 1455.0156,133.6875 1455.0156,131.9844 L1455.0156,130.8906 C1455.0156,129.1094 1456.2656,127.7969 1458,127.7969 C1458.5781,127.7969 1459.1875,127.9531 1459.6563,128.2031 C1460.1406,128.4844 1460.3125,128.7031 1460.4063,129.1094 C1460.4688,129.5156 1460.5,129.6406 1460.6406,129.7656 C1460.7813,129.9063 1461.0156,130.0156 1461.2344,130.0156 C1461.5,130.0156 1461.7656,129.875 1461.9375,129.6563 C1462.0469,129.5 1462.0781,129.3125 1462.0781,128.8906 L1462.0781,127.4688 C1462.0781,127.0313 1462.0625,126.9063 1461.9688,126.75 C1461.8125,126.4844 1461.5313,126.3438 1461.2344,126.3438 C1460.9375,126.3438 1460.7344,126.4375 1460.5156,126.75 L1460.3438,126.6719 Z " fill="#000000"/><text fill="#000000" font-family="sans-serif" font-size="14" lengthAdjust="spacing" textLength="68" x="1472" y="135.8467">Statistics</text><line style="stroke:#181818;stroke-width:0.5;" x1="1444" x2="1542" y1="147" y2="147"/><line style="stroke:#181818;stroke-width:0.5;" x1="1444" x2="1542" y1="155" y2="155"/></g><!--class User_login--><g id="elem_User_login"><rect codeLine="18" fill="#ABDBE3" height="48" id="User_login" rx="2.5" ry="2.5" style="stroke:#181818;stroke-width:0.5;" width="105" x="1302.5" y="115"/><ellipse cx="1317.5" cy="131" fill="#ADD1B2" rx="11" ry="11" style="stroke:#181818;stroke-width:1.0;"/><path d="M1319.8438,126.6719 C1318.9063,126.2344 1318.3125,126.0938 1317.4375,126.0938 C1314.8125,126.0938 1312.8125,128.1719 1312.8125,130.8906 L1312.8125,132.0156 C1312.8125,134.5938 1314.9219,136.4844 1317.8125,136.4844 C1319.0313,136.4844 1320.1875,136.1875 1320.9375,135.6406 C1321.5156,135.2344 1321.8438,134.7813 1321.8438,134.3906 C1321.8438,133.9375 1321.4531,133.5469 1320.9844,133.5469 C1320.7656,133.5469 1320.5625,133.625 1320.375,133.8125 C1319.9219,134.2969 1319.9219,134.2969 1319.7344,134.3906 C1319.3125,134.6563 1318.625,134.7813 1317.8594,134.7813 C1315.8125,134.7813 1314.5156,133.6875 1314.5156,131.9844 L1314.5156,130.8906 C1314.5156,129.1094 1315.7656,127.7969 1317.5,127.7969 C1318.0781,127.7969 1318.6875,127.9531 1319.1563,128.2031 C1319.6406,128.4844 1319.8125,128.7031 1319.9063,129.1094 C1319.9688,129.5156 1320,129.6406 1320.1406,129.7656 C1320.2813,129.9063 1320.5156,130.0156 1320.7344,130.0156 C1321,130.0156 1321.2656,129.875 1321.4375,129.6563 C1321.5469,129.5 1321.5781,129.3125 1321.5781,128.8906 L1321.5781,127.4688 C1321.5781,127.0313 1321.5625,126.9063 1321.4688,126.75 C1321.3125,126.4844 1321.0313,126.3438 1320.7344,126.3438 C1320.4375,126.3438 1320.2344,126.4375 1320.0156,126.75 L1319.8438,126.6719 Z " fill="#000000"/><text fill="#000000" font-family="sans-serif" font-size="14" lengthAdjust="spacing" textLength="73" x="1331.5" y="135.8467">User_login</text><line style="stroke:#181818;stroke-width:0.5;" x1="1303.5" x2="1406.5" y1="147" y2="147"/><line style="stroke:#181818;stroke-width:0.5;" x1="1303.5" x2="1406.5" y1="155" y2="155"/></g><!--class PlayerLogin--><g id="elem_PlayerLogin"><rect codeLine="26" fill="#ABDBE3" height="210.9688" id="PlayerLogin" rx="2.5" ry="2.5" style="stroke:#181818;stroke-width:0.5;" width="477" x="876.5" y="352"/><ellipse cx="1069.25" cy="368" fill="#ADD1B2" rx="11" ry="11" style="stroke:#181818;stroke-width:1.0;"/><path d="M1071.5938,363.6719 C1070.6563,363.2344 1070.0625,363.0938 1069.1875,363.0938 C1066.5625,363.0938 1064.5625,365.1719 1064.5625,367.8906 L1064.5625,369.0156 C1064.5625,371.5938 1066.6719,373.4844 1069.5625,373.4844 C1070.7813,373.4844 1071.9375,373.1875 1072.6875,372.6406 C1073.2656,372.2344 1073.5938,371.7813 1073.5938,371.3906 C1073.5938,370.9375 1073.2031,370.5469 1072.7344,370.5469 C1072.5156,370.5469 1072.3125,370.625 1072.125,370.8125 C1071.6719,371.2969 1071.6719,371.2969 1071.4844,371.3906 C1071.0625,371.6563 1070.375,371.7813 1069.6094,371.7813 C1067.5625,371.7813 1066.2656,370.6875 1066.2656,368.9844 L1066.2656,367.8906 C1066.2656,366.1094 1067.5156,364.7969 1069.25,364.7969 C1069.8281,364.7969 1070.4375,364.9531 1070.9063,365.2031 C1071.3906,365.4844 1071.5625,365.7031 1071.6563,366.1094 C1071.7188,366.5156 1071.75,366.6406 1071.8906,366.7656 C1072.0313,366.9063 1072.2656,367.0156 1072.4844,367.0156 C1072.75,367.0156 1073.0156,366.875 1073.1875,366.6563 C1073.2969,366.5 1073.3281,366.3125 1073.3281,365.8906 L1073.3281,364.4688 C1073.3281,364.0313 1073.3125,363.9063 1073.2188,363.75 C1073.0625,363.4844 1072.7813,363.3438 1072.4844,363.3438 C1072.1875,363.3438 1071.9844,363.4375 1071.7656,363.75 L1071.5938,363.6719 Z " fill="#000000"/><text fill="#000000" font-family="sans-serif" font-size="14" lengthAdjust="spacing" textLength="83" x="1089.75" y="372.8467">PlayerLogin</text><line style="stroke:#181818;stroke-width:0.5;" x1="877.5" x2="1352.5" y1="384" y2="384"/><ellipse cx="887.5" cy="397.6484" fill="none" rx="3" ry="3" style="stroke:#038048;stroke-width:1.0;"/><text fill="#000000" font-family="sans-serif" font-size="14" lengthAdjust="spacing" textLength="142" x="896.5" y="400.9951">string userLoginURL</text><text fill="#000000" font-family="sans-serif" font-size="14" lengthAdjust="spacing" textLength="4" x="896.5" y="417.292">&#160;</text><ellipse cx="887.5" cy="430.2422" fill="none" rx="3" ry="3" style="stroke:#038048;stroke-width:1.0;"/><text fill="#000000" font-family="sans-serif" font-size="14" lengthAdjust="spacing" textLength="224" x="896.5" y="433.5889">TMP_InputField emailInputField</text><ellipse cx="887.5" cy="446.5391" fill="none" rx="3" ry="3" style="stroke:#038048;stroke-width:1.0;"/><text fill="#000000" font-family="sans-serif" font-size="14" lengthAdjust="spacing" textLength="252" x="896.5" y="449.8857">TMP_InputField passwordInputField</text><text fill="#000000" font-family="sans-serif" font-size="14" lengthAdjust="spacing" textLength="4" x="896.5" y="466.1826">&#160;</text><ellipse cx="887.5" cy="479.1328" fill="none" rx="3" ry="3" style="stroke:#038048;stroke-width:1.0;"/><text fill="#000000" font-family="sans-serif" font-size="14" lengthAdjust="spacing" textLength="174" x="896.5" y="482.4795">ServerLogin serverLogin</text><text fill="#000000" font-family="sans-serif" font-size="14" lengthAdjust="spacing" textLength="4" x="896.5" y="498.7764">&#160;</text><ellipse cx="887.5" cy="511.7266" fill="none" rx="3" ry="3" style="stroke:#038048;stroke-width:1.0;"/><text fill="#000000" font-family="sans-serif" font-size="14" lengthAdjust="spacing" textLength="106" x="896.5" y="515.0732">int numPlayers</text><line style="stroke:#181818;stroke-width:0.5;" x1="877.5" x2="1352.5" y1="522.375" y2="522.375"/><ellipse cx="887.5" cy="536.0234" fill="#84BE84" rx="3" ry="3" style="stroke:#038048;stroke-width:1.0;"/><text fill="#000000" font-family="sans-serif" font-size="14" lengthAdjust="spacing" textLength="83" x="896.5" y="539.3701">void Login()</text><rect fill="#F24D5C" height="6" style="stroke:#C82930;stroke-width:1.0;" width="6" x="884.5" y="549.3203"/><text fill="#000000" font-family="sans-serif" font-size="14" lengthAdjust="spacing" textLength="451" x="896.5" y="555.667">IEnumerator PlayerLoginRequest(string email, string password)</text></g><!--class PlayerRegister--><g id="elem_PlayerRegister"><rect codeLine="43" fill="#ABDBE3" height="210.9688" id="PlayerRegister" rx="2.5" ry="2.5" style="stroke:#181818;stroke-width:0.5;" width="623" x="2340.5" y="352"/><ellipse cx="2595.25" cy="368" fill="#ADD1B2" rx="11" ry="11" style="stroke:#181818;stroke-width:1.0;"/><path d="M2597.5938,363.6719 C2596.6563,363.2344 2596.0625,363.0938 2595.1875,363.0938 C2592.5625,363.0938 2590.5625,365.1719 2590.5625,367.8906 L2590.5625,369.0156 C2590.5625,371.5938 2592.6719,373.4844 2595.5625,373.4844 C2596.7813,373.4844 2597.9375,373.1875 2598.6875,372.6406 C2599.2656,372.2344 2599.5938,371.7813 2599.5938,371.3906 C2599.5938,370.9375 2599.2031,370.5469 2598.7344,370.5469 C2598.5156,370.5469 2598.3125,370.625 2598.125,370.8125 C2597.6719,371.2969 2597.6719,371.2969 2597.4844,371.3906 C2597.0625,371.6563 2596.375,371.7813 2595.6094,371.7813 C2593.5625,371.7813 2592.2656,370.6875 2592.2656,368.9844 L2592.2656,367.8906 C2592.2656,366.1094 2593.5156,364.7969 2595.25,364.7969 C2595.8281,364.7969 2596.4375,364.9531 2596.9063,365.2031 C2597.3906,365.4844 2597.5625,365.7031 2597.6563,366.1094 C2597.7188,366.5156 2597.75,366.6406 2597.8906,366.7656 C2598.0313,366.9063 2598.2656,367.0156 2598.4844,367.0156 C2598.75,367.0156 2599.0156,366.875 2599.1875,366.6563 C2599.2969,366.5 2599.3281,366.3125 2599.3281,365.8906 L2599.3281,364.4688 C2599.3281,364.0313 2599.3125,363.9063 2599.2188,363.75 C2599.0625,363.4844 2598.7813,363.3438 2598.4844,363.3438 C2598.1875,363.3438 2597.9844,363.4375 2597.7656,363.75 L2597.5938,363.6719 Z " fill="#000000"/><text fill="#000000" font-family="sans-serif" font-size="14" lengthAdjust="spacing" textLength="105" x="2615.75" y="372.8467">PlayerRegister</text><line style="stroke:#181818;stroke-width:0.5;" x1="2341.5" x2="2962.5" y1="384" y2="384"/><ellipse cx="2351.5" cy="397.6484" fill="none" rx="3" ry="3" style="stroke:#038048;stroke-width:1.0;"/><text fill="#000000" font-family="sans-serif" font-size="14" lengthAdjust="spacing" textLength="164" x="2360.5" y="400.9951">string userRegisterURL</text><text fill="#000000" font-family="sans-serif" font-size="14" lengthAdjust="spacing" textLength="4" x="2360.5" y="417.292">&#160;</text><ellipse cx="2351.5" cy="430.2422" fill="none" rx="3" ry="3" style="stroke:#038048;stroke-width:1.0;"/><text fill="#000000" font-family="sans-serif" font-size="14" lengthAdjust="spacing" textLength="224" x="2360.5" y="433.5889">TMP_InputField emailInputField</text><ellipse cx="2351.5" cy="446.5391" fill="none" rx="3" ry="3" style="stroke:#038048;stroke-width:1.0;"/><text fill="#000000" font-family="sans-serif" font-size="14" lengthAdjust="spacing" textLength="252" x="2360.5" y="449.8857">TMP_InputField passwordInputField</text><ellipse cx="2351.5" cy="462.8359" fill="none" rx="3" ry="3" style="stroke:#038048;stroke-width:1.0;"/><text fill="#000000" font-family="sans-serif" font-size="14" lengthAdjust="spacing" textLength="256" x="2360.5" y="466.1826">TMP_InputField nickNameInputField</text><text fill="#000000" font-family="sans-serif" font-size="14" lengthAdjust="spacing" textLength="4" x="2360.5" y="482.4795">&#160;</text><ellipse cx="2351.5" cy="495.4297" fill="none" rx="3" ry="3" style="stroke:#038048;stroke-width:1.0;"/><text fill="#000000" font-family="sans-serif" font-size="14" lengthAdjust="spacing" textLength="175" x="2360.5" y="498.7764">GameObject succesText</text><ellipse cx="2351.5" cy="511.7266" fill="none" rx="3" ry="3" style="stroke:#038048;stroke-width:1.0;"/><text fill="#000000" font-family="sans-serif" font-size="14" lengthAdjust="spacing" textLength="150" x="2360.5" y="515.0732">GameObject failText</text><line style="stroke:#181818;stroke-width:0.5;" x1="2341.5" x2="2962.5" y1="522.375" y2="522.375"/><ellipse cx="2351.5" cy="536.0234" fill="#84BE84" rx="3" ry="3" style="stroke:#038048;stroke-width:1.0;"/><text fill="#000000" font-family="sans-serif" font-size="14" lengthAdjust="spacing" textLength="105" x="2360.5" y="539.3701">void Register()</text><rect fill="#F24D5C" height="6" style="stroke:#C82930;stroke-width:1.0;" width="6" x="2348.5" y="549.3203"/><text fill="#000000" font-family="sans-serif" font-size="14" lengthAdjust="spacing" textLength="597" x="2360.5" y="555.667">IEnumerator PlayerRegisterRequest(string email, string password, string nickname)</text></g><!--class ScoreSubmission--><g id="elem_ScoreSubmission"><rect codeLine="59" fill="#ABDBE3" height="96.8906" id="ScoreSubmission" rx="2.5" ry="2.5" style="stroke:#181818;stroke-width:0.5;" width="381" x="1924.5" y="409"/><ellipse cx="2049.75" cy="425" fill="#ADD1B2" rx="11" ry="11" style="stroke:#181818;stroke-width:1.0;"/><path d="M2052.0938,420.6719 C2051.1563,420.2344 2050.5625,420.0938 2049.6875,420.0938 C2047.0625,420.0938 2045.0625,422.1719 2045.0625,424.8906 L2045.0625,426.0156 C2045.0625,428.5938 2047.1719,430.4844 2050.0625,430.4844 C2051.2813,430.4844 2052.4375,430.1875 2053.1875,429.6406 C2053.7656,429.2344 2054.0938,428.7813 2054.0938,428.3906 C2054.0938,427.9375 2053.7031,427.5469 2053.2344,427.5469 C2053.0156,427.5469 2052.8125,427.625 2052.625,427.8125 C2052.1719,428.2969 2052.1719,428.2969 2051.9844,428.3906 C2051.5625,428.6563 2050.875,428.7813 2050.1094,428.7813 C2048.0625,428.7813 2046.7656,427.6875 2046.7656,425.9844 L2046.7656,424.8906 C2046.7656,423.1094 2048.0156,421.7969 2049.75,421.7969 C2050.3281,421.7969 2050.9375,421.9531 2051.4063,422.2031 C2051.8906,422.4844 2052.0625,422.7031 2052.1563,423.1094 C2052.2188,423.5156 2052.25,423.6406 2052.3906,423.7656 C2052.5313,423.9063 2052.7656,424.0156 2052.9844,424.0156 C2053.25,424.0156 2053.5156,423.875 2053.6875,423.6563 C2053.7969,423.5 2053.8281,423.3125 2053.8281,422.8906 L2053.8281,421.4688 C2053.8281,421.0313 2053.8125,420.9063 2053.7188,420.75 C2053.5625,420.4844 2053.2813,420.3438 2052.9844,420.3438 C2052.6875,420.3438 2052.4844,420.4375 2052.2656,420.75 L2052.0938,420.6719 Z " fill="#000000"/><text fill="#000000" font-family="sans-serif" font-size="14" lengthAdjust="spacing" textLength="122" x="2070.25" y="429.8467">ScoreSubmission</text><line style="stroke:#181818;stroke-width:0.5;" x1="1925.5" x2="2304.5" y1="441" y2="441"/><ellipse cx="1935.5" cy="454.6484" fill="none" rx="3" ry="3" style="stroke:#038048;stroke-width:1.0;"/><text fill="#000000" font-family="sans-serif" font-size="14" lengthAdjust="spacing" textLength="164" x="1944.5" y="457.9951">string scoreSubmitURL</text><line style="stroke:#181818;stroke-width:0.5;" x1="1925.5" x2="2304.5" y1="465.2969" y2="465.2969"/><ellipse cx="1935.5" cy="478.9453" fill="#84BE84" rx="3" ry="3" style="stroke:#038048;stroke-width:1.0;"/><text fill="#000000" font-family="sans-serif" font-size="14" lengthAdjust="spacing" textLength="200" x="1944.5" y="482.292">void SubmitScore(int score)</text><rect fill="#F24D5C" height="6" style="stroke:#C82930;stroke-width:1.0;" width="6" x="1932.5" y="492.2422"/><text fill="#000000" font-family="sans-serif" font-size="14" lengthAdjust="spacing" textLength="355" x="1944.5" y="498.5889">IEnumerator SendScore(string playerId, int score)</text></g><!--class ServerLogin--><g id="elem_ServerLogin"><rect codeLine="68" fill="#ABDBE3" height="113.1875" id="ServerLogin" rx="2.5" ry="2.5" style="stroke:#181818;stroke-width:0.5;" width="501" x="1388.5" y="401"/><ellipse cx="1591.75" cy="417" fill="#ADD1B2" rx="11" ry="11" style="stroke:#181818;stroke-width:1.0;"/><path d="M1594.0938,412.6719 C1593.1563,412.2344 1592.5625,412.0938 1591.6875,412.0938 C1589.0625,412.0938 1587.0625,414.1719 1587.0625,416.8906 L1587.0625,418.0156 C1587.0625,420.5938 1589.1719,422.4844 1592.0625,422.4844 C1593.2813,422.4844 1594.4375,422.1875 1595.1875,421.6406 C1595.7656,421.2344 1596.0938,420.7813 1596.0938,420.3906 C1596.0938,419.9375 1595.7031,419.5469 1595.2344,419.5469 C1595.0156,419.5469 1594.8125,419.625 1594.625,419.8125 C1594.1719,420.2969 1594.1719,420.2969 1593.9844,420.3906 C1593.5625,420.6563 1592.875,420.7813 1592.1094,420.7813 C1590.0625,420.7813 1588.7656,419.6875 1588.7656,417.9844 L1588.7656,416.8906 C1588.7656,415.1094 1590.0156,413.7969 1591.75,413.7969 C1592.3281,413.7969 1592.9375,413.9531 1593.4063,414.2031 C1593.8906,414.4844 1594.0625,414.7031 1594.1563,415.1094 C1594.2188,415.5156 1594.25,415.6406 1594.3906,415.7656 C1594.5313,415.9063 1594.7656,416.0156 1594.9844,416.0156 C1595.25,416.0156 1595.5156,415.875 1595.6875,415.6563 C1595.7969,415.5 1595.8281,415.3125 1595.8281,414.8906 L1595.8281,413.4688 C1595.8281,413.0313 1595.8125,412.9063 1595.7188,412.75 C1595.5625,412.4844 1595.2813,412.3438 1594.9844,412.3438 C1594.6875,412.3438 1594.4844,412.4375 1594.2656,412.75 L1594.0938,412.6719 Z " fill="#000000"/><text fill="#000000" font-family="sans-serif" font-size="14" lengthAdjust="spacing" textLength="86" x="1612.25" y="421.8467">ServerLogin</text><line style="stroke:#181818;stroke-width:0.5;" x1="1389.5" x2="1888.5" y1="433" y2="433"/><ellipse cx="1399.5" cy="446.6484" fill="none" rx="3" ry="3" style="stroke:#038048;stroke-width:1.0;"/><text fill="#000000" font-family="sans-serif" font-size="14" lengthAdjust="spacing" textLength="157" x="1408.5" y="449.9951">string serverLoginURL</text><ellipse cx="1399.5" cy="462.9453" fill="none" rx="3" ry="3" style="stroke:#038048;stroke-width:1.0;"/><text fill="#000000" font-family="sans-serif" font-size="14" lengthAdjust="spacing" textLength="222" x="1408.5" y="466.292">TextMeshProUGUI serverStatus</text><line style="stroke:#181818;stroke-width:0.5;" x1="1389.5" x2="1888.5" y1="473.5938" y2="473.5938"/><ellipse cx="1399.5" cy="487.2422" fill="#84BE84" rx="3" ry="3" style="stroke:#038048;stroke-width:1.0;"/><text fill="#000000" font-family="sans-serif" font-size="14" lengthAdjust="spacing" textLength="83" x="1408.5" y="490.5889">void Login()</text><rect fill="#F24D5C" height="6" style="stroke:#C82930;stroke-width:1.0;" width="6" x="1396.5" y="500.5391"/><text fill="#000000" font-family="sans-serif" font-size="14" lengthAdjust="spacing" textLength="475" x="1408.5" y="506.8857">IEnumerator ServerLoginRequest(string serverID, string password)</text></g><!--class Server--><g id="elem_Server"><rect codeLine="78" fill="#ABDBE3" height="439.125" id="Server" rx="2.5" ry="2.5" style="stroke:#181818;stroke-width:0.5;" width="415" x="22.5" y="238"/><ellipse cx="202.25" cy="254" fill="#ADD1B2" rx="11" ry="11" style="stroke:#181818;stroke-width:1.0;"/><path d="M204.5938,249.6719 C203.6563,249.2344 203.0625,249.0938 202.1875,249.0938 C199.5625,249.0938 197.5625,251.1719 197.5625,253.8906 L197.5625,255.0156 C197.5625,257.5938 199.6719,259.4844 202.5625,259.4844 C203.7813,259.4844 204.9375,259.1875 205.6875,258.6406 C206.2656,258.2344 206.5938,257.7813 206.5938,257.3906 C206.5938,256.9375 206.2031,256.5469 205.7344,256.5469 C205.5156,256.5469 205.3125,256.625 205.125,256.8125 C204.6719,257.2969 204.6719,257.2969 204.4844,257.3906 C204.0625,257.6563 203.375,257.7813 202.6094,257.7813 C200.5625,257.7813 199.2656,256.6875 199.2656,254.9844 L199.2656,253.8906 C199.2656,252.1094 200.5156,250.7969 202.25,250.7969 C202.8281,250.7969 203.4375,250.9531 203.9063,251.2031 C204.3906,251.4844 204.5625,251.7031 204.6563,252.1094 C204.7188,252.5156 204.75,252.6406 204.8906,252.7656 C205.0313,252.9063 205.2656,253.0156 205.4844,253.0156 C205.75,253.0156 206.0156,252.875 206.1875,252.6563 C206.2969,252.5 206.3281,252.3125 206.3281,251.8906 L206.3281,250.4688 C206.3281,250.0313 206.3125,249.9063 206.2188,249.75 C206.0625,249.4844 205.7813,249.3438 205.4844,249.3438 C205.1875,249.3438 204.9844,249.4375 204.7656,249.75 L204.5938,249.6719 Z " fill="#000000"/><text fill="#000000" font-family="sans-serif" font-size="14" lengthAdjust="spacing" textLength="47" x="222.75" y="258.8467">Server</text><line style="stroke:#181818;stroke-width:0.5;" x1="23.5" x2="436.5" y1="270" y2="270"/><rect fill="none" height="6" style="stroke:#C82930;stroke-width:1.0;" width="6" x="30.5" y="280.6484"/><text fill="#000000" font-family="sans-serif" font-size="14" lengthAdjust="spacing" textLength="99" x="42.5" y="286.9951">const int Port</text><rect fill="none" height="6" style="stroke:#C82930;stroke-width:1.0;" width="6" x="30.5" y="296.9453"/><text fill="#000000" font-family="sans-serif" font-size="14" lengthAdjust="spacing" textLength="146" x="42.5" y="303.292">const int MaxClients</text><text fill="#000000" font-family="sans-serif" font-size="14" lengthAdjust="spacing" textLength="4" x="42.5" y="319.5889">&#160;</text><rect fill="none" height="6" style="stroke:#C82930;stroke-width:1.0;" width="6" x="30.5" y="329.5391"/><text fill="#000000" font-family="sans-serif" font-size="14" lengthAdjust="spacing" textLength="186" x="42.5" y="335.8857">TcpListener serverSocket</text><rect fill="none" height="6" style="stroke:#C82930;stroke-width:1.0;" width="6" x="30.5" y="345.8359"/><text fill="#000000" font-family="sans-serif" font-size="14" lengthAdjust="spacing" textLength="132" x="42.5" y="352.1826">TcpClient[] clients</text><rect fill="none" height="6" style="stroke:#C82930;stroke-width:1.0;" width="6" x="30.5" y="362.1328"/><text fill="#000000" font-family="sans-serif" font-size="14" lengthAdjust="spacing" textLength="222" x="42.5" y="368.4795">NetworkStream[] clientStream</text><rect fill="none" height="6" style="stroke:#C82930;stroke-width:1.0;" width="6" x="30.5" y="378.4297"/><text fill="#000000" font-family="sans-serif" font-size="14" lengthAdjust="spacing" textLength="146" x="42.5" y="384.7764">byte[] reveiveBuffer</text><rect fill="none" height="6" style="stroke:#C82930;stroke-width:1.0;" width="6" x="30.5" y="394.7266"/><text fill="#000000" font-family="sans-serif" font-size="14" lengthAdjust="spacing" textLength="135" x="42.5" y="401.0732">bool isGameActive</text><text fill="#000000" font-family="sans-serif" font-size="14" lengthAdjust="spacing" textLength="4" x="42.5" y="417.3701">&#160;</text><ellipse cx="33.5" cy="430.3203" fill="none" rx="3" ry="3" style="stroke:#038048;stroke-width:1.0;"/><text fill="#000000" font-family="sans-serif" font-size="14" lengthAdjust="spacing" textLength="184" x="42.5" y="433.667">GameManager startGame</text><text fill="#000000" font-family="sans-serif" font-size="14" lengthAdjust="spacing" textLength="4" x="42.5" y="449.9639">&#160;</text><rect fill="none" height="6" style="stroke:#C82930;stroke-width:1.0;" width="6" x="30.5" y="459.9141"/><text fill="#000000" font-family="sans-serif" font-size="14" lengthAdjust="spacing" textLength="151" x="42.5" y="466.2607">int connectedClients</text><rect fill="none" height="6" style="stroke:#C82930;stroke-width:1.0;" width="6" x="30.5" y="476.2109"/><text fill="#000000" font-family="sans-serif" font-size="14" lengthAdjust="spacing" textLength="158" x="42.5" y="482.5576">int nextPlayerNumber</text><text fill="#000000" font-family="sans-serif" font-size="14" lengthAdjust="spacing" textLength="275" x="42.5" y="498.8545">HashSet&lt;int&gt; assignedPlayerNumbers</text><line style="stroke:#181818;stroke-width:0.5;" x1="23.5" x2="436.5" y1="506.1563" y2="506.1563"/><ellipse cx="33.5" cy="519.8047" fill="#84BE84" rx="3" ry="3" style="stroke:#038048;stroke-width:1.0;"/><text fill="#000000" font-family="sans-serif" font-size="14" lengthAdjust="spacing" textLength="170" x="42.5" y="523.1514">void StartGameServer()</text><ellipse cx="33.5" cy="536.1016" fill="#84BE84" rx="3" ry="3" style="stroke:#038048;stroke-width:1.0;"/><text fill="#000000" font-family="sans-serif" font-size="14" lengthAdjust="spacing" textLength="152" x="42.5" y="539.4482">void InitializeServer()</text><rect fill="#F24D5C" height="6" style="stroke:#C82930;stroke-width:1.0;" width="6" x="30.5" y="549.3984"/><text fill="#000000" font-family="sans-serif" font-size="14" lengthAdjust="spacing" textLength="241" x="42.5" y="555.7451">ClientConnected(IAsyncResult ar)</text><rect fill="#F24D5C" height="6" style="stroke:#C82930;stroke-width:1.0;" width="6" x="30.5" y="565.6953"/><text fill="#000000" font-family="sans-serif" font-size="14" lengthAdjust="spacing" textLength="237" x="42.5" y="572.042">ReceiveMessage(IAsyncResult ar)</text><rect fill="#F24D5C" height="6" style="stroke:#C82930;stroke-width:1.0;" width="6" x="30.5" y="581.9922"/><text fill="#000000" font-family="sans-serif" font-size="14" lengthAdjust="spacing" textLength="389" x="42.5" y="588.3389">SendMessageToClient(int clientIndex, string message)</text><ellipse cx="33.5" cy="601.2891" fill="#84BE84" rx="3" ry="3" style="stroke:#038048;stroke-width:1.0;"/><text fill="#000000" font-family="sans-serif" font-size="14" lengthAdjust="spacing" textLength="320" x="42.5" y="604.6357">BroadcastMessageToClients(string message)</text><ellipse cx="33.5" cy="617.5859" fill="#84BE84" rx="3" ry="3" style="stroke:#038048;stroke-width:1.0;"/><text fill="#000000" font-family="sans-serif" font-size="14" lengthAdjust="spacing" textLength="174" x="42.5" y="620.9326">BroadcastSwitchPlayer()</text><ellipse cx="33.5" cy="633.8828" fill="#84BE84" rx="3" ry="3" style="stroke:#038048;stroke-width:1.0;"/><text fill="#000000" font-family="sans-serif" font-size="14" lengthAdjust="spacing" textLength="109" x="42.5" y="637.2295">BroadcastWin()</text><ellipse cx="33.5" cy="650.1797" fill="#84BE84" rx="3" ry="3" style="stroke:#038048;stroke-width:1.0;"/><text fill="#000000" font-family="sans-serif" font-size="14" lengthAdjust="spacing" textLength="118" x="42.5" y="653.5264">BroadcastDraw()</text><ellipse cx="33.5" cy="666.4766" fill="#84BE84" rx="3" ry="3" style="stroke:#038048;stroke-width:1.0;"/><text fill="#000000" font-family="sans-serif" font-size="14" lengthAdjust="spacing" textLength="175" x="42.5" y="669.8232">BroadcastUpdateVisual()</text></g><!--class Client--><g id="elem_Client"><rect codeLine="107" fill="#ABDBE3" height="471.7188" id="Client" rx="2.5" ry="2.5" style="stroke:#181818;stroke-width:0.5;" width="427" x="22.5" y="1252"/><ellipse cx="210.25" cy="1268" fill="#ADD1B2" rx="11" ry="11" style="stroke:#181818;stroke-width:1.0;"/><path d="M212.5938,1263.6719 C211.6563,1263.2344 211.0625,1263.0938 210.1875,1263.0938 C207.5625,1263.0938 205.5625,1265.1719 205.5625,1267.8906 L205.5625,1269.0156 C205.5625,1271.5938 207.6719,1273.4844 210.5625,1273.4844 C211.7813,1273.4844 212.9375,1273.1875 213.6875,1272.6406 C214.2656,1272.2344 214.5938,1271.7813 214.5938,1271.3906 C214.5938,1270.9375 214.2031,1270.5469 213.7344,1270.5469 C213.5156,1270.5469 213.3125,1270.625 213.125,1270.8125 C212.6719,1271.2969 212.6719,1271.2969 212.4844,1271.3906 C212.0625,1271.6563 211.375,1271.7813 210.6094,1271.7813 C208.5625,1271.7813 207.2656,1270.6875 207.2656,1268.9844 L207.2656,1267.8906 C207.2656,1266.1094 208.5156,1264.7969 210.25,1264.7969 C210.8281,1264.7969 211.4375,1264.9531 211.9063,1265.2031 C212.3906,1265.4844 212.5625,1265.7031 212.6563,1266.1094 C212.7188,1266.5156 212.75,1266.6406 212.8906,1266.7656 C213.0313,1266.9063 213.2656,1267.0156 213.4844,1267.0156 C213.75,1267.0156 214.0156,1266.875 214.1875,1266.6563 C214.2969,1266.5 214.3281,1266.3125 214.3281,1265.8906 L214.3281,1264.4688 C214.3281,1264.0313 214.3125,1263.9063 214.2188,1263.75 C214.0625,1263.4844 213.7813,1263.3438 213.4844,1263.3438 C213.1875,1263.3438 212.9844,1263.4375 212.7656,1263.75 L212.5938,1263.6719 Z " fill="#000000"/><text fill="#000000" font-family="sans-serif" font-size="14" lengthAdjust="spacing" textLength="43" x="230.75" y="1272.8467">Client</text><line style="stroke:#181818;stroke-width:0.5;" x1="23.5" x2="448.5" y1="1284" y2="1284"/><ellipse cx="33.5" cy="1297.6484" fill="none" rx="3" ry="3" style="stroke:#038048;stroke-width:1.0;"/><text fill="#000000" font-family="sans-serif" font-size="14" lengthAdjust="spacing" textLength="192" x="42.5" y="1300.9951">const string serverAddress</text><ellipse cx="33.5" cy="1313.9453" fill="none" rx="3" ry="3" style="stroke:#038048;stroke-width:1.0;"/><text fill="#000000" font-family="sans-serif" font-size="14" lengthAdjust="spacing" textLength="144" x="42.5" y="1317.292">const int serverPort</text><text fill="#000000" font-family="sans-serif" font-size="14" lengthAdjust="spacing" textLength="4" x="42.5" y="1333.5889">&#160;</text><rect fill="none" height="6" style="stroke:#C82930;stroke-width:1.0;" width="6" x="30.5" y="1343.5391"/><text fill="#000000" font-family="sans-serif" font-size="14" lengthAdjust="spacing" textLength="115" x="42.5" y="1349.8857">TcpClient client</text><rect fill="none" height="6" style="stroke:#C82930;stroke-width:1.0;" width="6" x="30.5" y="1359.8359"/><text fill="#000000" font-family="sans-serif" font-size="14" lengthAdjust="spacing" textLength="231" x="42.5" y="1366.1826">NetworkStream networkStream</text><text fill="#000000" font-family="sans-serif" font-size="14" lengthAdjust="spacing" textLength="4" x="42.5" y="1382.4795">&#160;</text><rect fill="none" height="6" style="stroke:#C82930;stroke-width:1.0;" width="6" x="30.5" y="1392.4297"/><text fill="#000000" font-family="sans-serif" font-size="14" lengthAdjust="spacing" textLength="146" x="42.5" y="1398.7764">byte[] receiveBuffer</text><rect fill="none" height="6" style="stroke:#C82930;stroke-width:1.0;" width="6" x="30.5" y="1408.7266"/><text fill="#000000" font-family="sans-serif" font-size="14" lengthAdjust="spacing" textLength="142" x="42.5" y="1415.0732">string receivedData</text><text fill="#000000" font-family="sans-serif" font-size="14" lengthAdjust="spacing" textLength="4" x="42.5" y="1431.3701">&#160;</text><ellipse cx="33.5" cy="1444.3203" fill="none" rx="3" ry="3" style="stroke:#038048;stroke-width:1.0;"/><text fill="#000000" font-family="sans-serif" font-size="14" lengthAdjust="spacing" textLength="208" x="42.5" y="1447.667">GameManager gameManager</text><text fill="#000000" font-family="sans-serif" font-size="14" lengthAdjust="spacing" textLength="4" x="42.5" y="1463.9639">&#160;</text><rect fill="none" height="6" style="stroke:#C82930;stroke-width:1.0;" width="6" x="30.5" y="1473.9141"/><text fill="#000000" font-family="sans-serif" font-size="14" lengthAdjust="spacing" textLength="401" x="42.5" y="1480.2607">UnityMainThreadDispatcher unityMainThreadDispatcher</text><text fill="#000000" font-family="sans-serif" font-size="14" lengthAdjust="spacing" textLength="4" x="42.5" y="1496.5576">&#160;</text><ellipse cx="33.5" cy="1509.5078" fill="none" rx="3" ry="3" style="stroke:#038048;stroke-width:1.0;"/><text fill="#000000" font-family="sans-serif" font-size="14" lengthAdjust="spacing" textLength="96" x="42.5" y="1512.8545">Server server</text><text fill="#000000" font-family="sans-serif" font-size="14" lengthAdjust="spacing" textLength="4" x="42.5" y="1529.1514">&#160;</text><rect fill="none" height="6" style="stroke:#C82930;stroke-width:1.0;" width="6" x="30.5" y="1539.1016"/><text fill="#000000" font-family="sans-serif" font-size="14" lengthAdjust="spacing" textLength="126" x="42.5" y="1545.4482">int playerNumber</text><text fill="#000000" font-family="sans-serif" font-size="14" lengthAdjust="spacing" textLength="4" x="42.5" y="1561.7451">&#160;</text><rect fill="none" height="6" style="stroke:#C82930;stroke-width:1.0;" width="6" x="30.5" y="1571.6953"/><text fill="#000000" font-family="sans-serif" font-size="14" lengthAdjust="spacing" textLength="166" x="42.5" y="1578.042">GameState gameState</text><line style="stroke:#181818;stroke-width:0.5;" x1="23.5" x2="448.5" y1="1585.3438" y2="1585.3438"/><ellipse cx="33.5" cy="1598.9922" fill="#84BE84" rx="3" ry="3" style="stroke:#038048;stroke-width:1.0;"/><text fill="#000000" font-family="sans-serif" font-size="14" lengthAdjust="spacing" textLength="170" x="42.5" y="1602.3389">void ConnectToServer()</text><ellipse cx="33.5" cy="1615.2891" fill="#84BE84" rx="3" ry="3" style="stroke:#038048;stroke-width:1.0;"/><text fill="#000000" font-family="sans-serif" font-size="14" lengthAdjust="spacing" textLength="241" x="42.5" y="1618.6357">ConnectCallback(IAsyncResult ar)</text><ellipse cx="33.5" cy="1631.5859" fill="#84BE84" rx="3" ry="3" style="stroke:#038048;stroke-width:1.0;"/><text fill="#000000" font-family="sans-serif" font-size="14" lengthAdjust="spacing" textLength="237" x="42.5" y="1634.9326">ReceiveCallback(IAsyncResult ar)</text><ellipse cx="33.5" cy="1647.8828" fill="#84BE84" rx="3" ry="3" style="stroke:#038048;stroke-width:1.0;"/><text fill="#000000" font-family="sans-serif" font-size="14" lengthAdjust="spacing" textLength="211" x="42.5" y="1651.2295">void ProcessData(string data)</text><ellipse cx="33.5" cy="1664.1797" fill="#84BE84" rx="3" ry="3" style="stroke:#038048;stroke-width:1.0;"/><text fill="#000000" font-family="sans-serif" font-size="14" lengthAdjust="spacing" textLength="172" x="42.5" y="1667.5264">SendMove(int cellIndex)</text><ellipse cx="33.5" cy="1680.4766" fill="#84BE84" rx="3" ry="3" style="stroke:#038048;stroke-width:1.0;"/><text fill="#000000" font-family="sans-serif" font-size="14" lengthAdjust="spacing" textLength="254" x="42.5" y="1683.8232">SendDataToServer(string message)</text><ellipse cx="33.5" cy="1696.7734" fill="#84BE84" rx="3" ry="3" style="stroke:#038048;stroke-width:1.0;"/><text fill="#000000" font-family="sans-serif" font-size="14" lengthAdjust="spacing" textLength="158" x="42.5" y="1700.1201">SendData(string data)</text><rect fill="#F24D5C" height="6" style="stroke:#C82930;stroke-width:1.0;" width="6" x="30.5" y="1710.0703"/><text fill="#000000" font-family="sans-serif" font-size="14" lengthAdjust="spacing" textLength="87" x="42.5" y="1716.417">OnDestroy()</text></g><!--class CellController--><g id="elem_CellController"><rect codeLine="139" fill="#FBD4A8" height="113.1875" id="CellController" rx="2.5" ry="2.5" style="stroke:#181818;stroke-width:0.5;" width="234" x="485" y="1431.5"/><ellipse cx="547.75" cy="1447.5" fill="#ADD1B2" rx="11" ry="11" style="stroke:#181818;stroke-width:1.0;"/><path d="M550.0938,1443.1719 C549.1563,1442.7344 548.5625,1442.5938 547.6875,1442.5938 C545.0625,1442.5938 543.0625,1444.6719 543.0625,1447.3906 L543.0625,1448.5156 C543.0625,1451.0938 545.1719,1452.9844 548.0625,1452.9844 C549.2813,1452.9844 550.4375,1452.6875 551.1875,1452.1406 C551.7656,1451.7344 552.0938,1451.2813 552.0938,1450.8906 C552.0938,1450.4375 551.7031,1450.0469 551.2344,1450.0469 C551.0156,1450.0469 550.8125,1450.125 550.625,1450.3125 C550.1719,1450.7969 550.1719,1450.7969 549.9844,1450.8906 C549.5625,1451.1563 548.875,1451.2813 548.1094,1451.2813 C546.0625,1451.2813 544.7656,1450.1875 544.7656,1448.4844 L544.7656,1447.3906 C544.7656,1445.6094 546.0156,1444.2969 547.75,1444.2969 C548.3281,1444.2969 548.9375,1444.4531 549.4063,1444.7031 C549.8906,1444.9844 550.0625,1445.2031 550.1563,1445.6094 C550.2188,1446.0156 550.25,1446.1406 550.3906,1446.2656 C550.5313,1446.4063 550.7656,1446.5156 550.9844,1446.5156 C551.25,1446.5156 551.5156,1446.375 551.6875,1446.1563 C551.7969,1446 551.8281,1445.8125 551.8281,1445.3906 L551.8281,1443.9688 C551.8281,1443.5313 551.8125,1443.4063 551.7188,1443.25 C551.5625,1442.9844 551.2813,1442.8438 550.9844,1442.8438 C550.6875,1442.8438 550.4844,1442.9375 550.2656,1443.25 L550.0938,1443.1719 Z " fill="#000000"/><text fill="#000000" font-family="sans-serif" font-size="14" lengthAdjust="spacing" textLength="100" x="568.25" y="1452.3467">CellController</text><line style="stroke:#181818;stroke-width:0.5;" x1="486" x2="718" y1="1463.5" y2="1463.5"/><ellipse cx="496" cy="1477.1484" fill="none" rx="3" ry="3" style="stroke:#038048;stroke-width:1.0;"/><text fill="#000000" font-family="sans-serif" font-size="14" lengthAdjust="spacing" textLength="63" x="505" y="1480.4951">int index</text><text fill="#000000" font-family="sans-serif" font-size="14" lengthAdjust="spacing" textLength="4" x="505" y="1496.792">&#160;</text><ellipse cx="496" cy="1509.7422" fill="none" rx="3" ry="3" style="stroke:#038048;stroke-width:1.0;"/><text fill="#000000" font-family="sans-serif" font-size="14" lengthAdjust="spacing" textLength="208" x="505" y="1513.0889">GameManager gameManager</text><line style="stroke:#181818;stroke-width:0.5;" x1="486" x2="718" y1="1520.3906" y2="1520.3906"/><ellipse cx="496" cy="1534.0391" fill="#84BE84" rx="3" ry="3" style="stroke:#038048;stroke-width:1.0;"/><text fill="#000000" font-family="sans-serif" font-size="14" lengthAdjust="spacing" textLength="128" x="505" y="1537.3857">void HandleClick()</text></g><!--class GameManager--><g id="elem_GameManager"><rect codeLine="149" fill="#FBD4A8" height="455.4219" id="GameManager" rx="2.5" ry="2.5" style="stroke:#181818;stroke-width:0.5;" width="387" x="266.5" y="737"/><ellipse cx="404.25" cy="753" fill="#ADD1B2" rx="11" ry="11" style="stroke:#181818;stroke-width:1.0;"/><path d="M406.5938,748.6719 C405.6563,748.2344 405.0625,748.0938 404.1875,748.0938 C401.5625,748.0938 399.5625,750.1719 399.5625,752.8906 L399.5625,754.0156 C399.5625,756.5938 401.6719,758.4844 404.5625,758.4844 C405.7813,758.4844 406.9375,758.1875 407.6875,757.6406 C408.2656,757.2344 408.5938,756.7813 408.5938,756.3906 C408.5938,755.9375 408.2031,755.5469 407.7344,755.5469 C407.5156,755.5469 407.3125,755.625 407.125,755.8125 C406.6719,756.2969 406.6719,756.2969 406.4844,756.3906 C406.0625,756.6563 405.375,756.7813 404.6094,756.7813 C402.5625,756.7813 401.2656,755.6875 401.2656,753.9844 L401.2656,752.8906 C401.2656,751.1094 402.5156,749.7969 404.25,749.7969 C404.8281,749.7969 405.4375,749.9531 405.9063,750.2031 C406.3906,750.4844 406.5625,750.7031 406.6563,751.1094 C406.7188,751.5156 406.75,751.6406 406.8906,751.7656 C407.0313,751.9063 407.2656,752.0156 407.4844,752.0156 C407.75,752.0156 408.0156,751.875 408.1875,751.6563 C408.2969,751.5 408.3281,751.3125 408.3281,750.8906 L408.3281,749.4688 C408.3281,749.0313 408.3125,748.9063 408.2188,748.75 C408.0625,748.4844 407.7813,748.3438 407.4844,748.3438 C407.1875,748.3438 406.9844,748.4375 406.7656,748.75 L406.5938,748.6719 Z " fill="#000000"/><text fill="#000000" font-family="sans-serif" font-size="14" lengthAdjust="spacing" textLength="103" x="424.75" y="757.8467">GameManager</text><line style="stroke:#181818;stroke-width:0.5;" x1="267.5" x2="652.5" y1="769" y2="769"/><ellipse cx="277.5" cy="782.6484" fill="none" rx="3" ry="3" style="stroke:#038048;stroke-width:1.0;"/><text fill="#000000" font-family="sans-serif" font-size="14" lengthAdjust="spacing" textLength="261" x="286.5" y="785.9951">TextMeshProUGUI currentPlayerText</text><ellipse cx="277.5" cy="798.9453" fill="none" rx="3" ry="3" style="stroke:#038048;stroke-width:1.0;"/><text fill="#000000" font-family="sans-serif" font-size="14" lengthAdjust="spacing" textLength="249" x="286.5" y="802.292">TextMeshProUGUI gameResultText</text><ellipse cx="277.5" cy="815.2422" fill="none" rx="3" ry="3" style="stroke:#038048;stroke-width:1.0;"/><text fill="#000000" font-family="sans-serif" font-size="14" lengthAdjust="spacing" textLength="266" x="286.5" y="818.5889">TextMeshProUGUI playerNumberText</text><text fill="#000000" font-family="sans-serif" font-size="14" lengthAdjust="spacing" textLength="4" x="286.5" y="834.8857">&#160;</text><ellipse cx="277.5" cy="847.8359" fill="none" rx="3" ry="3" style="stroke:#038048;stroke-width:1.0;"/><text fill="#000000" font-family="sans-serif" font-size="14" lengthAdjust="spacing" textLength="134" x="286.5" y="851.1826">Color player1Color</text><ellipse cx="277.5" cy="864.1328" fill="none" rx="3" ry="3" style="stroke:#038048;stroke-width:1.0;"/><text fill="#000000" font-family="sans-serif" font-size="14" lengthAdjust="spacing" textLength="133" x="286.5" y="867.4795">Color player2Color</text><text fill="#000000" font-family="sans-serif" font-size="14" lengthAdjust="spacing" textLength="4" x="286.5" y="883.7764">&#160;</text><ellipse cx="277.5" cy="896.7266" fill="none" rx="3" ry="3" style="stroke:#038048;stroke-width:1.0;"/><text fill="#000000" font-family="sans-serif" font-size="14" lengthAdjust="spacing" textLength="121" x="286.5" y="900.0732">int currentPlayer</text><rect fill="none" height="6" style="stroke:#C82930;stroke-width:1.0;" width="6" x="274.5" y="910.0234"/><text fill="#000000" font-family="sans-serif" font-size="14" lengthAdjust="spacing" textLength="120" x="286.5" y="916.3701">int[,] gameBoard</text><rect fill="none" height="6" style="stroke:#C82930;stroke-width:1.0;" width="6" x="274.5" y="926.3203"/><text fill="#000000" font-family="sans-serif" font-size="14" lengthAdjust="spacing" textLength="123" x="286.5" y="932.667">bool isGameOver</text><text fill="#000000" font-family="sans-serif" font-size="14" lengthAdjust="spacing" textLength="4" x="286.5" y="948.9639">&#160;</text><ellipse cx="277.5" cy="961.9141" fill="none" rx="3" ry="3" style="stroke:#038048;stroke-width:1.0;"/><text fill="#000000" font-family="sans-serif" font-size="14" lengthAdjust="spacing" textLength="96" x="286.5" y="965.2607">Server server</text><text fill="#000000" font-family="sans-serif" font-size="14" lengthAdjust="spacing" textLength="4" x="286.5" y="981.5576">&#160;</text><ellipse cx="277.5" cy="994.5078" fill="none" rx="3" ry="3" style="stroke:#038048;stroke-width:1.0;"/><text fill="#000000" font-family="sans-serif" font-size="14" lengthAdjust="spacing" textLength="126" x="286.5" y="997.8545">int playerNumber</text><text fill="#000000" font-family="sans-serif" font-size="14" lengthAdjust="spacing" textLength="4" x="286.5" y="1014.1514">&#160;</text><ellipse cx="277.5" cy="1027.1016" fill="none" rx="3" ry="3" style="stroke:#038048;stroke-width:1.0;"/><text fill="#000000" font-family="sans-serif" font-size="14" lengthAdjust="spacing" textLength="166" x="286.5" y="1030.4482">GameState gameState</text><text fill="#000000" font-family="sans-serif" font-size="14" lengthAdjust="spacing" textLength="4" x="286.5" y="1046.7451">&#160;</text><ellipse cx="277.5" cy="1059.6953" fill="none" rx="3" ry="3" style="stroke:#038048;stroke-width:1.0;"/><text fill="#000000" font-family="sans-serif" font-size="14" lengthAdjust="spacing" textLength="218" x="286.5" y="1063.042">void UpdateCurrentPlayerText</text><line style="stroke:#181818;stroke-width:0.5;" x1="267.5" x2="652.5" y1="1070.3438" y2="1070.3438"/><ellipse cx="277.5" cy="1083.9922" fill="#84BE84" rx="3" ry="3" style="stroke:#038048;stroke-width:1.0;"/><text fill="#000000" font-family="sans-serif" font-size="14" lengthAdjust="spacing" textLength="212" x="286.5" y="1087.3389">void SetServer(Server server)</text><ellipse cx="277.5" cy="1100.2891" fill="#84BE84" rx="3" ry="3" style="stroke:#038048;stroke-width:1.0;"/><text fill="#000000" font-family="sans-serif" font-size="14" lengthAdjust="spacing" textLength="221" x="286.5" y="1103.6357">void StartGame(int firstPlayer)</text><ellipse cx="277.5" cy="1116.5859" fill="#84BE84" rx="3" ry="3" style="stroke:#038048;stroke-width:1.0;"/><text fill="#000000" font-family="sans-serif" font-size="14" lengthAdjust="spacing" textLength="361" x="286.5" y="1119.9326">void UpdateCellVisual(int index, int playerNumber)</text><ellipse cx="277.5" cy="1132.8828" fill="#84BE84" rx="3" ry="3" style="stroke:#038048;stroke-width:1.0;"/><text fill="#000000" font-family="sans-serif" font-size="14" lengthAdjust="spacing" textLength="189" x="286.5" y="1136.2295">void HandleWin(int player)</text><ellipse cx="277.5" cy="1149.1797" fill="#84BE84" rx="3" ry="3" style="stroke:#038048;stroke-width:1.0;"/><text fill="#000000" font-family="sans-serif" font-size="14" lengthAdjust="spacing" textLength="129" x="286.5" y="1152.5264">void HandleDraw()</text><ellipse cx="277.5" cy="1165.4766" fill="#84BE84" rx="3" ry="3" style="stroke:#038048;stroke-width:1.0;"/><text fill="#000000" font-family="sans-serif" font-size="14" lengthAdjust="spacing" textLength="250" x="286.5" y="1168.8232">void SetPlayerNumber(int number)</text><rect fill="#F24D5C" height="6" style="stroke:#C82930;stroke-width:1.0;" width="6" x="274.5" y="1178.7734"/><text fill="#000000" font-family="sans-serif" font-size="14" lengthAdjust="spacing" textLength="176" x="286.5" y="1185.1201">void GameBoardThingy()</text></g><!--class GameState--><g id="elem_GameState"><rect codeLine="179" fill="#FBD4A8" height="243.5625" id="GameState" rx="2.5" ry="2.5" style="stroke:#181818;stroke-width:0.5;" width="368" x="473" y="335.5"/><ellipse cx="611.75" cy="351.5" fill="#ADD1B2" rx="11" ry="11" style="stroke:#181818;stroke-width:1.0;"/><path d="M614.0938,347.1719 C613.1563,346.7344 612.5625,346.5938 611.6875,346.5938 C609.0625,346.5938 607.0625,348.6719 607.0625,351.3906 L607.0625,352.5156 C607.0625,355.0938 609.1719,356.9844 612.0625,356.9844 C613.2813,356.9844 614.4375,356.6875 615.1875,356.1406 C615.7656,355.7344 616.0938,355.2813 616.0938,354.8906 C616.0938,354.4375 615.7031,354.0469 615.2344,354.0469 C615.0156,354.0469 614.8125,354.125 614.625,354.3125 C614.1719,354.7969 614.1719,354.7969 613.9844,354.8906 C613.5625,355.1563 612.875,355.2813 612.1094,355.2813 C610.0625,355.2813 608.7656,354.1875 608.7656,352.4844 L608.7656,351.3906 C608.7656,349.6094 610.0156,348.2969 611.75,348.2969 C612.3281,348.2969 612.9375,348.4531 613.4063,348.7031 C613.8906,348.9844 614.0625,349.2031 614.1563,349.6094 C614.2188,350.0156 614.25,350.1406 614.3906,350.2656 C614.5313,350.4063 614.7656,350.5156 614.9844,350.5156 C615.25,350.5156 615.5156,350.375 615.6875,350.1563 C615.7969,350 615.8281,349.8125 615.8281,349.3906 L615.8281,347.9688 C615.8281,347.5313 615.8125,347.4063 615.7188,347.25 C615.5625,346.9844 615.2813,346.8438 614.9844,346.8438 C614.6875,346.8438 614.4844,346.9375 614.2656,347.25 L614.0938,347.1719 Z " fill="#000000"/><text fill="#000000" font-family="sans-serif" font-size="14" lengthAdjust="spacing" textLength="82" x="632.25" y="356.3467">GameState</text><line style="stroke:#181818;stroke-width:0.5;" x1="474" x2="840" y1="367.5" y2="367.5"/><ellipse cx="484" cy="381.1484" fill="none" rx="3" ry="3" style="stroke:#038048;stroke-width:1.0;"/><text fill="#000000" font-family="sans-serif" font-size="14" lengthAdjust="spacing" textLength="120" x="493" y="384.4951">int[,] gameBoard</text><ellipse cx="484" cy="397.4453" fill="none" rx="3" ry="3" style="stroke:#038048;stroke-width:1.0;"/><text fill="#000000" font-family="sans-serif" font-size="14" lengthAdjust="spacing" textLength="121" x="493" y="400.792">int currentPlayer</text><ellipse cx="484" cy="413.7422" fill="none" rx="3" ry="3" style="stroke:#038048;stroke-width:1.0;"/><text fill="#000000" font-family="sans-serif" font-size="14" lengthAdjust="spacing" textLength="98" x="493" y="417.0889">int firstPlayer</text><ellipse cx="484" cy="430.0391" fill="none" rx="3" ry="3" style="stroke:#038048;stroke-width:1.0;"/><text fill="#000000" font-family="sans-serif" font-size="14" lengthAdjust="spacing" textLength="123" x="493" y="433.3857">bool isGameOver</text><text fill="#000000" font-family="sans-serif" font-size="14" lengthAdjust="spacing" textLength="4" x="493" y="449.6826">&#160;</text><ellipse cx="484" cy="462.6328" fill="none" rx="3" ry="3" style="stroke:#038048;stroke-width:1.0;"/><text fill="#000000" font-family="sans-serif" font-size="14" lengthAdjust="spacing" textLength="122" x="493" y="465.9795">bool IsCellEmpty</text><line style="stroke:#181818;stroke-width:0.5;" x1="474" x2="840" y1="473.2813" y2="473.2813"/><ellipse cx="484" cy="486.9297" fill="#84BE84" rx="3" ry="3" style="stroke:#038048;stroke-width:1.0;"/><text fill="#000000" font-family="sans-serif" font-size="14" lengthAdjust="spacing" textLength="92" x="493" y="490.2764">GameState()</text><ellipse cx="484" cy="503.2266" fill="#84BE84" rx="3" ry="3" style="stroke:#038048;stroke-width:1.0;"/><text fill="#000000" font-family="sans-serif" font-size="14" lengthAdjust="spacing" textLength="342" x="493" y="506.5732">void MakeMove(int cellIndex, int playerNumber)</text><ellipse cx="484" cy="519.5234" fill="#84BE84" rx="3" ry="3" style="stroke:#038048;stroke-width:1.0;"/><text fill="#000000" font-family="sans-serif" font-size="14" lengthAdjust="spacing" textLength="271" x="493" y="522.8701">void SetFirstPlayer(int playerNumber)</text><ellipse cx="484" cy="535.8203" fill="#84BE84" rx="3" ry="3" style="stroke:#038048;stroke-width:1.0;"/><text fill="#000000" font-family="sans-serif" font-size="14" lengthAdjust="spacing" textLength="257" x="493" y="539.167">bool CheckWinCondition(int player)</text><ellipse cx="484" cy="552.1172" fill="#84BE84" rx="3" ry="3" style="stroke:#038048;stroke-width:1.0;"/><text fill="#000000" font-family="sans-serif" font-size="14" lengthAdjust="spacing" textLength="127" x="493" y="555.4639">bool CheckDraw()</text><ellipse cx="484" cy="568.4141" fill="#84BE84" rx="3" ry="3" style="stroke:#038048;stroke-width:1.0;"/><text fill="#000000" font-family="sans-serif" font-size="14" lengthAdjust="spacing" textLength="136" x="493" y="571.7607">void SwitchPlayer()</text></g><!--class UnityMainThreadDispatcher--><g id="elem_UnityMainThreadDispatcher"><rect codeLine="196" fill="#FBD4A8" height="113.1875" id="UnityMainThreadDispatcher" rx="2.5" ry="2.5" style="stroke:#181818;stroke-width:0.5;" width="345" x="63.5" y="1784"/><ellipse cx="132.25" cy="1800" fill="#ADD1B2" rx="11" ry="11" style="stroke:#181818;stroke-width:1.0;"/><path d="M134.5938,1795.6719 C133.6563,1795.2344 133.0625,1795.0938 132.1875,1795.0938 C129.5625,1795.0938 127.5625,1797.1719 127.5625,1799.8906 L127.5625,1801.0156 C127.5625,1803.5938 129.6719,1805.4844 132.5625,1805.4844 C133.7813,1805.4844 134.9375,1805.1875 135.6875,1804.6406 C136.2656,1804.2344 136.5938,1803.7813 136.5938,1803.3906 C136.5938,1802.9375 136.2031,1802.5469 135.7344,1802.5469 C135.5156,1802.5469 135.3125,1802.625 135.125,1802.8125 C134.6719,1803.2969 134.6719,1803.2969 134.4844,1803.3906 C134.0625,1803.6563 133.375,1803.7813 132.6094,1803.7813 C130.5625,1803.7813 129.2656,1802.6875 129.2656,1800.9844 L129.2656,1799.8906 C129.2656,1798.1094 130.5156,1796.7969 132.25,1796.7969 C132.8281,1796.7969 133.4375,1796.9531 133.9063,1797.2031 C134.3906,1797.4844 134.5625,1797.7031 134.6563,1798.1094 C134.7188,1798.5156 134.75,1798.6406 134.8906,1798.7656 C135.0313,1798.9063 135.2656,1799.0156 135.4844,1799.0156 C135.75,1799.0156 136.0156,1798.875 136.1875,1798.6563 C136.2969,1798.5 136.3281,1798.3125 136.3281,1797.8906 L136.3281,1796.4688 C136.3281,1796.0313 136.3125,1795.9063 136.2188,1795.75 C136.0625,1795.4844 135.7813,1795.3438 135.4844,1795.3438 C135.1875,1795.3438 134.9844,1795.4375 134.7656,1795.75 L134.5938,1795.6719 Z " fill="#000000"/><text fill="#000000" font-family="sans-serif" font-size="14" lengthAdjust="spacing" textLength="199" x="152.75" y="1804.8467">UnityMainThreadDispatcher</text><line style="stroke:#181818;stroke-width:0.5;" x1="64.5" x2="407.5" y1="1816" y2="1816"/><rect fill="none" height="6" style="stroke:#C82930;stroke-width:1.0;" width="6" x="71.5" y="1826.6484"/><text fill="#000000" font-family="sans-serif" font-size="14" lengthAdjust="spacing" textLength="309" x="83.5" y="1832.9951">static UnityMainThreadDispatcher instance</text><rect fill="none" height="6" style="stroke:#C82930;stroke-width:1.0;" width="6" x="71.5" y="1842.9453"/><text fill="#000000" font-family="sans-serif" font-size="14" lengthAdjust="spacing" textLength="319" x="83.5" y="1849.292">static readonly Queue&lt;Action&gt; actionQueue</text><line style="stroke:#181818;stroke-width:0.5;" x1="64.5" x2="407.5" y1="1856.5938" y2="1856.5938"/><ellipse cx="74.5" cy="1870.2422" fill="#84BE84" rx="3" ry="3" style="stroke:#038048;stroke-width:1.0;"/><text fill="#000000" font-family="sans-serif" font-size="14" lengthAdjust="spacing" textLength="319" x="83.5" y="1873.5889">static UnityMainThreadDispatcher Instance()</text><ellipse cx="74.5" cy="1886.5391" fill="#84BE84" rx="3" ry="3" style="stroke:#038048;stroke-width:1.0;"/><text fill="#000000" font-family="sans-serif" font-size="14" lengthAdjust="spacing" textLength="201" x="83.5" y="1889.8857">void Enqueue(Action action)</text></g><!--class Database--><g id="elem_Database"><rect fill="#F1F1F1" height="48" id="Database" rx="2.5" ry="2.5" style="stroke:#181818;stroke-width:0.5;" width="100" x="1589" y="7"/><ellipse cx="1604" cy="23" fill="#ADD1B2" rx="11" ry="11" style="stroke:#181818;stroke-width:1.0;"/><path d="M1606.3438,18.6719 C1605.4063,18.2344 1604.8125,18.0938 1603.9375,18.0938 C1601.3125,18.0938 1599.3125,20.1719 1599.3125,22.8906 L1599.3125,24.0156 C1599.3125,26.5938 1601.4219,28.4844 1604.3125,28.4844 C1605.5313,28.4844 1606.6875,28.1875 1607.4375,27.6406 C1608.0156,27.2344 1608.3438,26.7813 1608.3438,26.3906 C1608.3438,25.9375 1607.9531,25.5469 1607.4844,25.5469 C1607.2656,25.5469 1607.0625,25.625 1606.875,25.8125 C1606.4219,26.2969 1606.4219,26.2969 1606.2344,26.3906 C1605.8125,26.6563 1605.125,26.7813 1604.3594,26.7813 C1602.3125,26.7813 1601.0156,25.6875 1601.0156,23.9844 L1601.0156,22.8906 C1601.0156,21.1094 1602.2656,19.7969 1604,19.7969 C1604.5781,19.7969 1605.1875,19.9531 1605.6563,20.2031 C1606.1406,20.4844 1606.3125,20.7031 1606.4063,21.1094 C1606.4688,21.5156 1606.5,21.6406 1606.6406,21.7656 C1606.7813,21.9063 1607.0156,22.0156 1607.2344,22.0156 C1607.5,22.0156 1607.7656,21.875 1607.9375,21.6563 C1608.0469,21.5 1608.0781,21.3125 1608.0781,20.8906 L1608.0781,19.4688 C1608.0781,19.0313 1608.0625,18.9063 1607.9688,18.75 C1607.8125,18.4844 1607.5313,18.3438 1607.2344,18.3438 C1606.9375,18.3438 1606.7344,18.4375 1606.5156,18.75 L1606.3438,18.6719 Z " fill="#000000"/><text fill="#000000" font-family="sans-serif" font-size="14" lengthAdjust="spacing" textLength="68" x="1618" y="27.8467">Database</text><line style="stroke:#181818;stroke-width:0.5;" x1="1590" x2="1688" y1="39" y2="39"/><line style="stroke:#181818;stroke-width:0.5;" x1="1590" x2="1688" y1="47" y2="47"/></g><!--reverse link Database to Register--><g id="link_Database_Register"><path codeLine="207" d="M1701.0769,31.4728 C1752.5269,32.6428 1821.56,39.89 1883,72 C1902.24,82.06 1919.1,100.05 1930.68,114.72 " fill="none" id="Database-backto-Register" style="stroke:#181818;stroke-width:1.0;"/><polygon fill="#181818" points="1689.08,31.2,1694.9875,35.3354,1701.0769,31.4728,1695.1694,27.3374,1689.08,31.2" style="stroke:#181818;stroke-width:1.0;"/></g><!--reverse link Database to Score_submit--><g id="link_Database_Score_submit"><path codeLine="208" d="M1698.3048,60.6769 C1708.2048,65.8969 1707.79,66.06 1717,72 C1736.96,84.87 1757.88,101.53 1773.72,114.89 " fill="none" id="Database-backto-Score_submit" style="stroke:#181818;stroke-width:1.0;"/><polygon fill="#181818" points="1687.69,55.08,1691.1318,61.4167,1698.3048,60.6769,1694.8631,54.3402,1687.69,55.08" style="stroke:#181818;stroke-width:1.0;"/></g><!--reverse link Database to Server_login--><g id="link_Database_Server_login"><path codeLine="209" d="M1639,67 C1639,84.66 1639,96.94 1639,114.68 " fill="none" id="Database-backto-Server_login" style="stroke:#181818;stroke-width:1.0;"/><polygon fill="#181818" points="1639,55,1635,61,1639,67,1643,61,1639,55" style="stroke:#181818;stroke-width:1.0;"/></g><!--reverse link Database to Statistics--><g id="link_Database_Statistics"><path codeLine="210" d="M1578.0347,60.7399 C1568.5647,65.8399 1569.53,65.88 1561,72 C1543.62,84.46 1526.36,101.29 1513.57,114.83 " fill="none" id="Database-backto-Statistics" style="stroke:#181818;stroke-width:1.0;"/><polygon fill="#181818" points="1588.6,55.05,1581.4207,54.3732,1578.0347,60.7399,1585.214,61.4167,1588.6,55.05" style="stroke:#181818;stroke-width:1.0;"/></g><!--reverse link Database to User_login--><g id="link_Database_User_login"><path codeLine="211" d="M1576.7305,34.4444 C1531.9005,37.6444 1477.56,45.98 1426,72 C1405.57,82.31 1386.8,100.29 1373.71,114.89 " fill="none" id="Database-backto-User_login" style="stroke:#181818;stroke-width:1.0;"/><polygon fill="#181818" points="1588.7,33.59,1582.4304,30.0273,1576.7305,34.4444,1583,38.007,1588.7,33.59" style="stroke:#181818;stroke-width:1.0;"/></g><!--reverse link Register to PlayerRegister--><g id="link_Register_PlayerRegister"><path codeLine="213" d="M2005.6599,139.2257 C2078.8799,139.5657 2211.9,146.92 2323,195 C2407.87,231.73 2489.35,296.19 2550,351.92 " fill="none" id="Register-backto-PlayerRegister" style="stroke:#181818;stroke-width:1.0;"/><polygon fill="#181818" points="1993.66,139.17,1999.6414,143.1978,2005.6599,139.2257,1999.6785,135.1979,1993.66,139.17" style="stroke:#181818;stroke-width:1.0;"/></g><!--reverse link Score_submit to ScoreSubmission--><g id="link_Score_submit_ScoreSubmission"><path codeLine="214" d="M1847.5918,169.1454 C1861.6318,177.3154 1867.57,180.14 1883,187 C1893.27,191.57 1897.79,188.56 1907,195 C1988.76,252.18 2054.55,350.57 2088.92,408.98 " fill="none" id="Score_submit-backto-ScoreSubmission" style="stroke:#181818;stroke-width:1.0;"/><polygon fill="#181818" points="1837.22,163.11,1840.3941,169.585,1847.5918,169.1454,1844.4177,162.6705,1837.22,163.11" style="stroke:#181818;stroke-width:1.0;"/></g><!--reverse link Server_login to ServerLogin--><g id="link_Server_login_ServerLogin"><path codeLine="215" d="M1639,175.02 C1639,224.59 1639,330.65 1639,401 " fill="none" id="Server_login-backto-ServerLogin" style="stroke:#181818;stroke-width:1.0;"/><polygon fill="#181818" points="1639,163.02,1635,169.02,1639,175.02,1643,169.02,1639,163.02" style="stroke:#181818;stroke-width:1.0;"/></g><!--reverse link User_login to PlayerLogin--><g id="link_User_login_PlayerLogin"><path codeLine="216" d="M1322.5474,171.9887 C1287.6474,211.2487 1231.6,284.49 1182.21,351.94 " fill="none" id="User_login-backto-PlayerLogin" style="stroke:#181818;stroke-width:1.0;"/><polygon fill="#181818" points="1330.52,163.02,1323.5441,164.8468,1322.5474,171.9887,1329.5232,170.1619,1330.52,163.02" style="stroke:#181818;stroke-width:1.0;"/></g><!--reverse link User_login to PlayerLogin--><g id="link_User_login_PlayerLogin"><path codeLine="224" d="M1338.6651,173.2178 C1314.3151,212.4778 1260.08,284.49 1207.07,351.94 " fill="none" id="User_login-backto-PlayerLogin-1" style="stroke:#181818;stroke-width:1.0;"/><polygon fill="#181818" points="1344.99,163.02,1338.4283,166.0106,1338.6651,173.2178,1345.2268,170.2272,1344.99,163.02" style="stroke:#181818;stroke-width:1.0;"/></g><!--reverse link Server to GameManager--><g id="link_Server_GameManager"><path codeLine="218" d="M321.815,688.0059 C330.738,707.8659 334.981,717.07 344.149,736.99 " fill="none" id="Server-backto-GameManager" style="stroke:#181818;stroke-width:1.0;"/><polygon fill="#181818" points="316.897,677.06,315.7073,684.1723,321.815,688.0059,323.0046,680.8937,316.897,677.06" style="stroke:#181818;stroke-width:1.0;"/></g><!--reverse link GameManager to Server--><g id="link_GameManager_Server"><path codeLine="220" d="M365.3442,726.0498 C356.3662,706.1298 352.108,696.92 342.935,677.06 " fill="none" id="GameManager-backto-Server" style="stroke:#181818;stroke-width:1.0;"/><polygon fill="#181818" points="370.275,736.99,371.4563,729.8763,365.3442,726.0498,364.1629,733.1635,370.275,736.99" style="stroke:#181818;stroke-width:1.0;"/></g><!--reverse link GameManager to Client--><g id="link_GameManager_Client"><path codeLine="221" d="M357.829,1203.3669 C349.393,1223.0069 345.581,1231.882 337.117,1251.587 " fill="none" id="GameManager-backto-Client" style="stroke:#181818;stroke-width:1.0;"/><polygon fill="#181818" points="362.565,1192.341,356.5217,1196.2753,357.829,1203.3669,363.8723,1199.4326,362.565,1192.341" style="stroke:#181818;stroke-width:1.0;"/></g><!--reverse link GameManager to CellController--><g id="link_GameManager_CellController"><path codeLine="222" d="M524.9197,1203.9195 C548.9277,1292.0915 571.217,1373.948 586.857,1431.388 " fill="none" id="GameManager-backto-CellController" style="stroke:#181818;stroke-width:1.0;"/><polygon fill="#181818" points="521.767,1192.341,519.4838,1199.1811,524.9197,1203.9195,527.2028,1197.0793,521.767,1192.341" style="stroke:#181818;stroke-width:1.0;"/></g><!--reverse link Server to Client--><g id="link_Server_Client"><path codeLine="226" d="M220.4976,689.2494 C218.7776,857.9294 220.174,1078.83 223.715,1251.568 " fill="none" id="Server-backto-Client" style="stroke:#181818;stroke-width:1.0;"/><polygon fill="#181818" points="220.62,677.25,216.559,683.2089,220.4976,689.2494,224.5586,683.2905,220.62,677.25" style="stroke:#181818;stroke-width:1.0;"/></g><!--reverse link Client to Server--><g id="link_Client_Server"><path codeLine="228" d="M246.2964,1239.5686 C247.9714,1066.8306 246.406,845.93 242.559,677.25 " fill="none" id="Client-backto-Server" style="stroke:#181818;stroke-width:1.0;"/><polygon fill="#181818" points="246.18,1251.568,250.238,1245.6071,246.2964,1239.5686,242.2384,1245.5295,246.18,1251.568" style="stroke:#181818;stroke-width:1.0;"/></g><!--reverse link Client to UnityMainThreadDispatcher--><g id="link_Client_UnityMainThreadDispatcher"><path codeLine="229" d="M236,1736.248 C236,1758.119 236,1766.573 236,1783.999 " fill="none" id="Client-backto-UnityMainThreadDispatcher" style="stroke:#181818;stroke-width:1.0;"/><polygon fill="#181818" points="236,1724.248,232,1730.248,236,1736.248,240,1730.248,236,1724.248" style="stroke:#181818;stroke-width:1.0;"/></g><!--reverse link GameState to GameManager--><g id="link_GameState_GameManager"><path codeLine="231" d="M605.3273,590.9596 C586.8853,638.2396 569.489,682.83 548.36,736.99 " fill="none" id="GameState-backto-GameManager" style="stroke:#181818;stroke-width:1.0;"/><polygon fill="#181818" points="609.688,579.78,603.7811,583.9162,605.3273,590.9596,611.2342,586.8234,609.688,579.78" style="stroke:#181818;stroke-width:1.0;"/></g><!--reverse link GameState to Client--><g id="link_GameState_Client"><path codeLine="232" d="M704.259,591.2109 C752.721,748.9609 804.248,1013.918 671,1192 C614.381,1267.669 548.059,1203.409 467,1252 C461.234,1255.456 455.512,1259.09 449.84,1262.878 " fill="none" id="GameState-backto-Client" style="stroke:#181818;stroke-width:1.0;"/><polygon fill="#181818" points="700.735,579.74,698.6733,586.6501,704.259,591.2109,706.3206,584.3008,700.735,579.74" style="stroke:#181818;stroke-width:1.0;"/></g><!--SRC=[hLTBRziu4BxhLmZOYxok3liuxA5O8B7Jn42SUFtO7eeYeAc9pRLCkYJbn2tsl-_m8OcKvRI71GB4cXdEV3FpSKWU2DsH3QIpkzct9A4bKIgTmuOf3JBzYQoBDVoMVal-hNKBAYGygMgzPphG1mOWZo2VIh5XlDz04utk6LMzwfMwi1h_3XxiYZDzQk3EId82UTzTCbHQChv9A-MLg_azIfVJsTE47ohzWK5PfB0dh6o_p_G7ZF0YP16O94ENeukesj-eOLodlDexI0e5Hy6Ar6gpGP9FRb09acWXGzXp-5A1qfb7R36zI_rNZM2G15LoYtiQ5QLTw_-lpBicdD7T0zb3L9nR53ok_m6gKrLH2ce9hpeIFsDWA_JbgM7sLwZM_b2H6e61nZ7a8EbmTs6egnGJlMHHZObsHRC0dS0kpqo7hLK7x09uuIngI1Rz1245Ixhxv29h0reP84DJhocexKoArUrgulLcBrLlqoo8qwcWSp4Pzp6j0pD4c5F1bRP9pOJKuVUKl8vA1bmZf7n93_UcSHoNUxI2xa1RZJFxz3cbtZv_08snTmijWUmRXVjCatnzqe1I2KTWHxYkdfz1ebI8CcNASEkAQbHu_aq9npc1SJMHsWWGZm68K3ao48eQffLohAtZsaErNwFVEwAs2z3lKVbdYbLW6mv5QD6KV547S7N2uZlv12SK8oNxsYfo5tDKGyWcL-h4wHnKLUgKIBIO0pNPOPyLmkynC2JpsgLm_YmXNR4cl83NffjxPuU8hgKW1ILATvQgxBBfueLfkdKvPw7YewLO-psMv2KIh0u5qV0tKnKfKT4moSMCkEwO4z7ngYWaegbrTkjOXULQm1sVSuSusClWAmbuGqFU-91UMeo99XtcRDhVwCKUE5F2-7ABVeinKmU2vK6xwfAcEIOyVi_0GyYp9BVKmKqCDg3zLLFB4sKfMcfvqOYKvHgFmdE233s3th2mld6Au61M9k-Q0zWqCZ2OaM7YwEOSXRAqfF8AOz_WEUDERH5xp1_v68UE5ASid2iZT8tfeBmipNnvNXU_apyiAqnaPgBYx_HYJrmYTuGN9I0ZCDVGVRWizDqTexII4bdaUEuEggw9YUeAsAyFE-fFjP4eSV8wnI_s8vRzwcGkrGY29ScdTvzjr6j1P14DkSTZ7x66vyGQla4id6o-XP6VGNUaMGeyCwayjjh0RN3JGB_9cuQveov4CeZwP6P7Qn7hwZaIXZXlJfr0E8mpV-couN9hSLjNRxb59fxEgE4gqo5TNFQUtWmx1Kc6vwrfl3UvJCaEpdVKvL9XTX_Q65cFcOqwsWBTOK5n4nLureXEPLkRgB3TiMxD9ieqysP_qAVm8dvnvWLroyqHYtVvDwmPpd72ARIsna3myfJ-LK45xyt9BJWUjFQ_bTbxq7VyJhnVaqPgaxlXNypYp3dq_WR-xM0cqveeI7_Ey-R66Kl3jqr74pngEfhcDHFBssTCaZJNTAE8BxL9z9vgGBINr2HwJxLOt8CZU2orllrRn6zk8xyD1sSu6bj_Ps9tofwBexcT_2W2xotnPtSGDv2iBf-bxQRjvXDhdBV_0000]--></g></svg>